<svg width="486" height="196" viewBox="0 0 486 196" fill="none" xmlns="http://www.w3.org/2000/svg">
<path fill-rule="evenodd" clip-rule="evenodd" d="M3 39V78H5.5C7.333 78 8 78.533 8 80C8 81.939 8.667 82 30 82H52V74.885V67.771L58.399 73.757C65.569 80.463 71.358 83 79.497 83C87.756 83 94.451 80.492 99.751 75.414L104.435 70.926L101.635 69.089C100.095 68.078 98.914 66.887 99.011 66.44C99.109 65.994 96.783 64.384 93.844 62.862L88.5 60.094L94.75 60.047C100.181 60.006 101 60.242 101 61.85C101 67.127 114.039 80.122 121.303 82.086C126.941 83.61 135.678 82.614 139.142 80.053C142.651 77.458 144 77.455 144 80.04C144 81.953 144.517 82.063 152.25 81.79L160.5 81.5L160.768 57.661C161.029 34.477 160.981 33.808 159.018 33.295C157.895 33.001 157 31.931 157 30.883C157 29.178 156.148 29 148 29C139.622 29 139 29.14 139 31.03C139 33.019 138.938 33.014 135.938 30.796C133.584 29.056 131.215 28.451 125.688 28.181C119.345 27.871 117.865 28.163 113.098 30.666C109.466 32.573 106.62 35.064 104.412 38.268L101.127 43.033L97.314 38.433C91.575 31.511 86.251 28.78 77.385 28.211C71.808 27.853 68.835 28.173 65.337 29.509C52.208 34.523 44.609 49.948 49.5 61.654C51.34 66.057 51.34 66 49.5 66C48.675 66 48 65.115 48 64.033C48 62.212 47.176 62.044 36.938 61.783L25.876 61.5L25.967 33.164C26.056 5.496 26.01 4.815 24.029 4.297C22.896 4.001 22 2.935 22 1.883C22 0.170999 21.137 0 12.5 0H3V39ZM185 30.88L180.5 33.933L180.18 31.428C179.863 28.947 179.78 28.927 171.18 29.212L162.5 29.5V53.5V77.5L164.75 77.82C166.214 78.027 167 78.827 167 80.11C167 81.935 167.609 82.059 175.25 81.79L183.5 81.5L184.022 67C184.308 59.025 184.895 51.776 185.325 50.891C187.113 47.206 195.531 45.885 201.163 48.403C202.326 48.924 202.967 48.599 203.297 47.323C203.556 46.321 203.82 52.813 203.884 61.75L204 78H206.5C208.35 78 209 78.531 209 80.04C209 81.953 209.517 82.063 217.25 81.79L225.5 81.5L226 65.659C226.479 50.479 226.599 49.737 228.876 47.896C231.666 45.641 235.38 44.548 237.498 45.361C238.748 45.84 239 48.63 239 61.969V78H241.5C243.35 78 244 78.531 244 80.04C244 81.953 244.517 82.063 252.25 81.79L260.5 81.5L260.807 67.5C261.25 47.256 260.688 43.937 255.847 38.224C247.461 28.328 235.473 25.181 226.25 30.454C222.133 32.808 222 32.821 222 30.875C222 28.996 221.368 28.87 212.25 28.927C206.887 28.961 199.575 28.727 196 28.407C189.933 27.865 189.2 28.03 185 30.88ZM83.362 44.5C83.836 45.736 82.844 45.994 77.719 45.965C71.821 45.931 71.629 45.855 74 44.5C77.343 42.589 82.628 42.589 83.362 44.5ZM136.381 46.955C141.118 48.756 140.828 57.288 135.873 61.904C132.782 64.783 124.545 64.887 123.035 62.066C120.249 56.86 123.604 48.746 129.212 47.129C133.606 45.861 133.511 45.864 136.381 46.955ZM84.694 62.532C80.333 66.368 70 65.919 70 61.893C70 60.177 70.82 60.003 78.75 60.032L87.5 60.063L84.694 62.532ZM27.326 87.098C19.445 88.555 12.225 93.679 8.918 100.161C6.434 105.029 6.2 113.512 8.42 118.189C11.196 124.04 20.313 132.066 29.739 136.955C37.485 140.974 38.47 141.79 38.242 144C37.844 147.844 34.501 150 28.936 150C23.665 150 21.015 149.071 13.7 144.661C11.06 143.069 8.751 141.932 8.568 142.133C7.797 142.985 0 156.077 0 156.52C0 158.02 8.348 164.517 13.5 167.026C28.232 174.2 47.617 172.525 56.136 163.342C61.61 157.441 63.699 149.662 61.818 142.19C59.922 134.66 50.859 126.003 38.477 119.895C27.601 114.53 26.757 113.34 31.064 109.442C33.567 107.177 43.094 107.848 48.847 110.694L53.081 112.789L56.661 105.68L60.241 98.572L58.12 97.164C56.954 96.39 56 95.176 56 94.467C56 92.866 48.996 89.444 43 88.116C35.848 86.532 31.803 86.27 27.326 87.098ZM155.284 87.727C151.912 88.341 148 93.594 148 97.508C148 101.202 153.629 108.895 157.797 110.897C166.295 114.978 175.332 106.095 170.972 97.947C170.406 96.89 168.269 94.269 166.222 92.122C162.49 88.208 159.419 86.974 155.284 87.727ZM352.259 88.487C348.231 90.238 345.43 95.591 346.438 99.611C346.828 101.163 349.299 104.585 351.93 107.216C355.854 111.139 357.356 112 360.28 112C367.152 112 372.803 104.254 369.904 98.809C367.381 94.068 362.656 89.076 359.727 88.055C356.037 86.768 356.24 86.757 352.259 88.487ZM194.25 118.566C190.12 121.041 190 121.055 190 119.057C190 117.142 189.411 117 181.5 117H173V141.5C173 165.333 173.054 166 175 166C176.333 166 177 166.667 177 168C177 169.843 177.667 170 185.5 170H194V154.635C194 140.504 194.17 139.054 196.116 136.58C197.75 134.503 198.944 133.96 201.366 134.195L204.5 134.5L204.775 150.25L205.051 166H207.525C209.333 166 210 166.539 210 168C210 169.843 210.667 170 218.5 170H227V154C227 139.181 227.152 137.848 229.059 135.941C230.471 134.529 232.121 133.979 234.309 134.191L237.5 134.5L237.775 150.25C238.036 165.173 238.154 166 240.025 166C241.333 166 242 166.675 242 168C242 169.843 242.667 170 250.5 170H259V151.434C259 139.319 258.599 132.11 257.845 130.684C255.263 125.804 249.264 119.573 245.5 117.862C237.852 114.386 227.772 116.169 222.573 121.918L220.646 124.049L217.573 121.086C213.623 117.277 210.122 115.998 203.685 116.009C199.92 116.016 197.336 116.716 194.25 118.566ZM283.502 117.575C281.853 118.435 279.716 119.852 278.752 120.724C277.124 122.197 277 122.121 277 119.655V117H268.5H260V141.5V166H262.406C264.32 166 264.706 166.409 264.29 168C263.797 169.885 264.259 170 272.315 170H280.862L281.181 153.909C281.489 138.39 281.584 137.751 283.861 135.909C286.742 133.579 291.554 133.394 292.393 135.582C292.727 136.452 293 143.652 293 151.582C293 165.333 293.092 166 295 166C296.333 166 297 166.667 297 168C297 169.843 297.667 170 305.5 170H314V154.455C314 139.283 314.059 138.85 316.455 136.455C317.977 134.932 320.056 134 321.929 134H324.949L325.225 149.75C325.495 165.227 325.539 165.506 327.75 165.82C329.196 166.025 330 166.829 330 168.07C330 169.827 330.77 170 338.594 170H347.187L346.825 151.25C346.426 130.621 346.226 129.833 339.563 122.702C335.095 117.921 330.541 116 323.672 116C318.219 116 312.391 118.743 309.239 122.793C308.099 124.256 307.821 124.189 306.356 122.098C302.61 116.749 289.908 114.236 283.502 117.575ZM393.338 118.404C389.366 120.675 389.154 120.697 388.682 118.892C388.245 117.221 387.182 117 379.594 117H371V141.5V166H373.5C375.35 166 376 166.531 376 168.04C376 169.951 376.518 170.062 384.124 169.79L392.247 169.5L392.071 157.787C391.855 143.4 392.486 139.787 395.791 136.482C397.778 134.495 399.192 133.97 401.936 134.201L405.5 134.5L405.775 150.25L406.051 166H408.525C410.35 166 411 166.536 411 168.04C411 169.953 411.517 170.063 419.25 169.79L427.5 169.5L427.494 162L427.488 154.5L434.994 162.158C441.778 169.08 443.029 169.923 448 170.926C451.672 171.667 455.161 171.725 458.499 171.1C461.249 170.586 463.63 170.297 463.791 170.458C463.953 170.619 462.681 171.932 460.966 173.376C456.592 177.055 448.868 177.078 443.488 173.428L439.698 170.855L433.376 173.678C429.307 175.494 427.044 177.095 427.027 178.169C426.979 181.143 436.6 190.577 442.23 193.076C449.909 196.484 464.271 196.498 471.794 193.104C478.207 190.211 483.406 184.415 484.896 178.499C485.561 175.858 486 163.751 486 148.057C486 122.667 485.949 122 484 122C482.533 122 482 121.333 482 119.5C482 117.029 481.9 117 473.5 117C465.707 117 465 117.164 465 118.972C465 120.863 464.809 120.842 460.351 118.472C454.556 115.391 445.512 115.128 439.5 117.866C435.123 119.859 428.626 126.452 427.48 130.062C426.756 132.344 426.754 132.344 425.628 130.259C423.415 126.166 416.641 119.741 412.604 117.908C406.671 115.213 398.552 115.423 393.338 118.404ZM54 117.305C54 119.018 79.736 164.89 81.925 167.078C84.436 169.59 85.608 170 90.28 170H95.714L99.97 160.25C102.31 154.887 104.548 150.149 104.942 149.721C105.336 149.293 107.368 152.78 109.458 157.471C111.548 162.162 113.845 166 114.562 166C115.279 166 116.157 166.921 116.514 168.046C117.089 169.854 117.859 170.057 123.171 169.796L129.178 169.5L135.161 158.5C138.452 152.45 142.908 144.125 145.062 140L148.979 132.5L148.99 149.25L149 166H151.406C153.32 166 153.706 166.409 153.29 168C152.797 169.886 153.259 170 161.383 170H170V146C170 122.667 169.944 122 168 122C166.533 122 166 121.333 166 119.5V117H148.556H131.112L128.311 123.25C126.77 126.688 124.367 131.932 122.97 134.904L120.431 140.307L116.511 131.154C114.355 126.119 112.08 122 111.456 122C110.832 122 109.808 120.875 109.182 119.5C108.156 117.248 107.463 117 102.188 117H96.333L91.251 128.7L86.168 140.4L82.204 131.82C80.024 127.101 77.286 122.286 76.12 121.12C74.954 119.954 74 118.55 74 118C74 117.4 70 117 64 117C58.5 117 54 117.137 54 117.305ZM348 141.5C348 165.333 348.054 166 350 166C351.333 166 352 166.667 352 168C352 169.843 352.667 170 360.5 170H369V146C369 122.667 368.944 122 367 122C365.533 122 365 121.333 365 119.5C365 117.029 364.9 117 356.5 117H348V141.5ZM463.429 136.571C466.935 140.078 463.702 150.284 458.686 151.543C457.379 151.871 454.567 151.995 452.436 151.82C449.053 151.54 448.449 151.099 447.66 148.331C446.529 144.363 449.296 138.114 453 136.273C456.468 134.548 461.551 134.694 463.429 136.571Z" fill="#D4FFFF"/>
<path fill-rule="evenodd" clip-rule="evenodd" d="M3 39V78H5.5C7.333 78 8 78.533 8 80C8 81.939 8.667 82 29.956 82H51.912L52.206 75.03L52.5 68.06L57.567 72.951C64.599 79.738 70.078 82.384 78 82.821C86.332 83.28 94.476 80.37 100.263 74.864L104.417 70.913L101.626 69.083C100.091 68.076 98.914 66.887 99.011 66.44C99.109 65.994 96.783 64.384 93.844 62.862L88.5 60.094L94.592 60.047L100.683 60L101.881 63.996C103.256 68.587 112.142 77.855 117.867 80.669C123.414 83.396 134.559 83.171 138.654 80.25C142.573 77.455 144 77.406 144 80.065C144 81.993 144.517 82.116 151.75 81.918C156.051 81.801 159.827 81.215 160.235 80.603C160.639 79.996 160.976 69.22 160.985 56.656C160.999 35.016 160.9 33.786 159.092 33.314C158.043 33.04 156.96 31.957 156.686 30.908C156.247 29.227 155.214 29 148 29C140.911 29 139.749 29.245 139.335 30.828C138.884 32.551 138.593 32.522 134.259 30.328C124.142 25.206 111.04 28.65 104.492 38.151L101.288 42.8L95.894 37.078C92.029 32.978 89.103 30.879 85.572 29.678C62.067 21.676 41.416 42.033 50.499 64.25C51.004 65.487 50.743 66 49.607 66C48.676 66 48 65.173 48 64.033C48 62.21 47.175 62.045 36.75 61.783L25.5 61.5L25.273 34C25.148 18.875 25.035 5.938 25.023 5.25C25.01 4.563 24.377 4 23.617 4C22.856 4 21.998 3.1 21.71 2C21.236 0.185 20.346 0 12.094 0H3V39ZM187.5 29.457C185.85 30.276 183.488 31.688 182.25 32.595C180.067 34.195 180 34.164 180 31.583V28.922L171.25 29.211L162.5 29.5L162.187 51.432C162.015 63.495 162.137 74.408 162.456 75.682C162.82 77.13 163.782 78 165.019 78C166.358 78 167 78.673 167 80.077C167 82.037 167.46 82.135 175.25 81.827L183.5 81.5L184 66.191C184.486 51.311 184.57 50.828 187 48.963C189.775 46.834 196.886 46.333 200.081 48.043C201.632 48.874 202.18 48.721 202.765 47.293C203.169 46.307 203.725 52.7 204 61.5C204.482 76.924 204.577 77.511 206.648 77.806C207.829 77.975 209.031 79.012 209.319 80.111C209.789 81.908 210.595 82.089 217.348 81.911C226.442 81.67 226.153 82.262 225.935 64.286C225.765 50.218 226.822 47.343 232.796 45.63C238.855 43.892 239 44.274 239 61.969V78H241.383C242.952 78 243.952 78.707 244.308 80.07C244.8 81.952 245.512 82.119 252.175 81.917C256.204 81.795 259.831 81.201 260.235 80.598C261.145 79.238 261.099 53.049 260.176 47.262C259.251 41.461 252.905 33.637 246.554 30.468C239.882 27.139 232.091 27.114 226.338 30.404C222.295 32.716 222.162 32.728 221.664 30.822C221.199 29.043 220.283 28.868 211.825 28.936C206.696 28.978 199.8 28.777 196.5 28.49C192.298 28.125 189.601 28.414 187.5 29.457ZM83.362 44.5C83.836 45.736 82.844 45.994 77.719 45.965C71.821 45.931 71.629 45.855 74 44.5C77.343 42.589 82.628 42.589 83.362 44.5ZM136.342 46.94C141.191 48.783 140.622 59.052 135.485 62.418C131.945 64.737 124.35 64.522 123.035 62.066C120.249 56.86 123.604 48.746 129.212 47.129C133.602 45.863 133.514 45.865 136.342 46.94ZM84.694 62.532C80.333 66.368 70 65.919 70 61.893C70 60.177 70.82 60.003 78.75 60.032L87.5 60.063L84.694 62.532ZM21.5 88.867C12.155 93.127 7 100.61 7 109.915C7 112.82 7.709 116.692 8.576 118.519C11.212 124.074 21.004 132.532 29.614 136.691C40.12 141.766 40.98 143.111 36.545 147.545C32.09 152.001 21.308 150.34 11.692 143.716C10.148 142.652 8.745 141.943 8.573 142.141C7.529 143.343 0 156.334 0 156.933C0 157.334 1.125 158.264 2.5 159C3.875 159.736 5 160.706 5 161.156C5 162.505 12.898 167.069 18.894 169.186C26.003 171.697 38.844 171.877 45.807 169.564C56.002 166.178 62.015 158.067 62.141 147.529C62.266 137.057 53.982 127.446 38.294 119.864C27.569 114.681 27.108 114.057 30.807 109.75C33.13 107.045 42.441 107.382 48.375 110.387L53.089 112.773L56.665 105.672L60.241 98.572L58.12 97.164C56.954 96.39 56 95.216 56 94.555C56 93.147 49.215 89.639 43.5 88.093C37.177 86.383 26.095 86.773 21.5 88.867ZM155.284 87.705C151.798 88.374 148 93.6 148 97.729C148 100.717 148.878 102.183 153.348 106.652C157.172 110.477 159.465 112 161.397 112C169.089 112 174.304 104.174 170.878 97.772C169.399 95.008 162.43 88 161.16 88C160.612 88 159.564 87.838 158.832 87.64C158.099 87.443 156.503 87.472 155.284 87.705ZM354.542 87.803C349.091 88.982 345.196 94.661 346.44 99.616C346.806 101.077 349.284 104.46 351.945 107.136C355.911 111.123 357.421 112 360.315 112C367.465 112 372.736 104.082 369.517 98.179C365.47 90.759 359.619 86.705 354.542 87.803ZM197.001 117.123C195.626 117.672 193.488 119.072 192.251 120.234L190 122.349V119.674V117H181.5H173V141.5C173 165.333 173.054 166 175 166C176.333 166 177 166.667 177 168C177 169.843 177.667 170 185.5 170H194V154.635C194 140.605 194.18 139.041 196.073 136.635C197.591 134.704 199.061 134 201.573 134H205V150V166H207.5C209.333 166 210 166.533 210 168C210 169.831 210.667 170 217.912 170H225.824L226.162 153.91C226.49 138.282 226.57 137.764 228.923 135.86C230.443 134.63 232.493 134.011 234.423 134.2L237.5 134.5L237.775 150.25L238.051 166H240.432C242.32 166 242.705 166.414 242.29 168C241.797 169.886 242.259 170 250.383 170H259V152.065C259 142.201 258.545 132.933 257.988 131.469C256.261 126.926 249.69 119.766 245.5 117.862C237.854 114.387 229.125 115.842 222.934 121.625L220.368 124.021L217.934 121.423C213.323 116.502 203.579 114.5 197.001 117.123ZM283.5 117.665C281.85 118.537 279.712 119.939 278.75 120.78C277.139 122.189 277 122.1 277 119.655V117H268.5H260V141.5V166H262.5C263.875 166 264.947 166.338 264.882 166.75C264.423 169.656 265.283 170 273 170H281V154.635C281 140.605 281.18 139.041 283.073 136.635C285.493 133.558 291.362 132.895 292.393 135.582C292.727 136.452 293 143.652 293 151.582C293 165.333 293.092 166 295 166C296.333 166 297 166.667 297 168C297 169.843 297.667 170 305.5 170H314V154.635C314 140.605 314.18 139.041 316.073 136.635C317.586 134.711 319.063 134 321.547 134H324.949L325.225 149.75C325.495 165.227 325.539 165.506 327.75 165.82C329.214 166.027 330 166.827 330 168.11C330 169.935 330.609 170.059 338.25 169.79L346.5 169.5V151C346.5 130.395 346.338 129.754 339.324 122.6C334.56 117.742 330.508 116 323.966 116C318.155 116 315.845 116.967 311.239 121.327L307.978 124.414L306.357 122.099C302.59 116.721 289.934 114.266 283.5 117.665ZM393.338 118.404C389.366 120.675 389.154 120.697 388.682 118.892C388.245 117.221 387.182 117 379.594 117H371V141.5V166H373.5C375.35 166 376 166.531 376 168.04C376 169.951 376.518 170.062 384.12 169.79L392.24 169.5L392.069 157.296C391.975 150.584 392.375 143.321 392.958 141.155C394.228 136.438 397.826 133.757 402.305 134.191L405.5 134.5L406 150C406.488 165.139 406.552 165.507 408.75 165.82C410.214 166.027 411 166.827 411 168.11C411 169.935 411.609 170.059 419.25 169.79L427.5 169.5L427.459 161.967L427.419 154.435L434.214 161.589C439.61 167.269 441.988 169.021 445.755 170.093C450.304 171.386 458.28 171.539 462.5 170.414C464.012 170.011 463.703 170.627 461.234 172.94C456.784 177.11 449.196 177.301 443.431 173.388L439.582 170.777L433.291 173.879C429.831 175.585 427 177.556 427 178.258C427 180.989 436.15 189.926 441.751 192.667C446.765 195.12 448.611 195.461 456.978 195.479C465.418 195.498 467.151 195.18 472.23 192.686C479.292 189.219 483.578 184.197 484.954 177.779C485.529 175.096 486 161.449 486 147.451C486 122.667 485.948 122 484 122C482.533 122 482 121.333 482 119.5C482 117.029 481.9 117 473.5 117C465.707 117 465 117.164 465 118.972C465 120.863 464.809 120.842 460.351 118.472C454.556 115.391 445.512 115.128 439.5 117.866C435.192 119.828 428.631 126.435 427.523 129.929C426.883 131.943 426.663 131.839 424.042 128.29C422.503 126.205 420.224 123.436 418.977 122.136C412.965 115.868 400.856 114.105 393.338 118.404ZM56.118 121.25C65.391 139.507 79.659 164.813 81.998 167.152C84.419 169.573 85.648 170 90.198 170H95.551L99.912 159.974C102.311 154.46 104.607 149.743 105.015 149.491C105.423 149.239 107.457 152.85 109.536 157.516C111.615 162.182 113.89 166 114.591 166C115.292 166 116.151 166.9 116.5 168C117.039 169.699 118.013 170 122.97 170H128.805L137.301 154.25C141.974 145.588 146.5 137.15 147.359 135.5C148.832 132.669 148.922 133.443 148.96 149.25L149 166H151.389C153.05 166 153.735 166.533 153.639 167.75C153.519 169.265 154.606 169.539 161.75 169.79L170 170.081V146.04C170 122.667 169.945 122 168 122C166.533 122 166 121.333 166 119.5V117H148.672H131.343L125.874 128.731L120.404 140.463L116.452 131.254C114.279 126.19 112.01 122.035 111.411 122.023C110.811 122.01 109.808 120.875 109.182 119.5C108.158 117.253 107.458 117 102.26 117H96.477L91.311 128.75L86.144 140.5L82.157 131.835C79.964 127.069 77.231 122.231 76.085 121.085C74.938 119.938 74 118.55 74 118C74 117.4 69.993 117 63.98 117H53.959L56.118 121.25ZM348 141.5C348 165.333 348.054 166 350 166C351.333 166 352 166.667 352 168C352 169.843 352.667 170 360.5 170H369V146C369 122.667 368.944 122 367 122C365.533 122 365 121.333 365 119.5C365 117.029 364.9 117 356.5 117H348V141.5ZM464.077 137.144C465.887 140.525 464.537 147.141 461.506 149.748C457.985 152.777 449.592 152.975 448.035 150.066C446.467 147.135 446.791 143.854 449.01 140.215C451.294 136.47 453.9 135.154 459.215 135.063C462.029 135.015 463.208 135.52 464.077 137.144Z" fill="#BDF0F5"/>
<path fill-rule="evenodd" clip-rule="evenodd" d="M3.45601 1.254C3.19201 1.943 3.09301 19.381 3.23801 40.004L3.50001 77.5L5.75001 77.82C6.98701 77.995 8.00001 78.783 8.00001 79.57C8.00001 80.767 11.597 81 30.082 81H52.164L51.832 73.998C51.649 70.147 51.543 66.997 51.596 66.998C51.649 66.999 54.124 69.385 57.096 72.301C64.538 79.601 70.208 82.176 78.837 82.176C88.091 82.176 93.361 80.404 98.832 75.45C103.042 71.639 103.295 71.153 101.834 69.691C100.956 68.813 99.888 68.411 99.46 68.798C99.032 69.184 98.935 68.788 99.245 67.917C99.662 66.747 98.195 65.539 93.62 63.283L87.432 60.232L84.66 62.616C82.469 64.5 80.741 65 76.412 65C71.651 65 70.824 64.706 70.085 62.75C69.617 61.513 69.434 60.162 69.676 59.75C69.919 59.338 76.829 59 85.031 59H99.944L102.104 64.02C104.505 69.602 113.338 78.407 118.844 80.708C121.886 81.979 131.403 82.641 134.972 81.83C135.769 81.648 137.312 80.712 138.4 79.75C140.903 77.535 145.185 77.355 144.362 79.5C143.879 80.757 145.098 81 151.893 81H160V57.617C160 34.841 159.946 34.219 157.938 33.694C156.627 33.351 155.99 32.49 156.188 31.328C156.466 29.699 155.603 29.468 148.25 29.21C140.517 28.937 140 29.047 140 30.96C140 32.082 139.887 32.998 139.75 32.996C139.613 32.994 137.286 31.869 134.581 30.496C122.939 24.59 109.049 29.304 102.892 41.25C101.075 44.775 99.692 46.22 100.25 44.01C100.746 42.043 92.398 33.168 88 30.986C77.246 25.651 64.203 27.702 55.867 36.037C48.228 43.677 46.334 53.673 50.521 64.25C51.007 65.478 50.735 66 49.607 66C48.667 66 48 65.17 48 64C48 62.116 47.333 62 36.471 62H24.943L25.032 33.794C25.118 6.187 25.077 5.573 23.06 4.827C21.906 4.4 21 3.171 21 2.032C21 0.148 20.378 0 12.469 0C6.55301 0 3.79001 0.384 3.45601 1.254ZM187.502 29.518C185.853 30.409 183.793 31.782 182.923 32.569C180.762 34.525 180.192 34.375 179.82 31.75C179.522 29.652 178.942 29.48 171.25 29.21L163 28.919V53.46V78H165.469C167.252 78 167.777 78.416 167.362 79.5C166.879 80.757 168.098 81 174.893 81H183V67.934C183 54.173 183.52 52.032 187.778 48.25C190.529 45.807 194.281 45.396 198.655 47.059C200.888 47.908 201.667 47.809 202.581 46.559C203.208 45.702 204.008 45 204.36 45C204.712 45 205 52.425 205 61.5C205 77.333 205.081 78 207 78C208.111 78 209 78.667 209 79.5C209 80.708 210.556 81 217 81H225V66.934C225 58.545 225.451 51.987 226.117 50.684C227.883 47.23 231.223 45.046 234.775 45.022C239.447 44.991 240.159 47.706 239.8 64.199C239.501 77.937 239.511 78.003 241.75 78.002C243.084 78.001 244 78.611 244 79.5C244 80.709 245.559 81 252.035 81H260.071L259.957 62.084L259.843 43.167L254.423 37.178C248.595 30.738 243.052 28 235.842 28C231.707 28 224 30.674 224 32.109C224 32.599 223.305 33 222.456 33C221.541 33 221.032 32.288 221.206 31.25C221.468 29.693 220.4 29.475 211.5 29.274C206 29.15 199.025 28.789 196 28.473C191.956 28.05 189.706 28.326 187.502 29.518ZM83.782 44.846C84.045 45.635 82.223 46 78.024 46C71.489 46 70.684 44.68 76.299 43.172C79.766 42.242 83.167 43.002 83.782 44.846ZM138.45 48.232C143.956 56.093 134.027 68.034 125.448 63.868C117.361 59.942 122.94 46.565 132.826 46.178C136.007 46.053 137.239 46.503 138.45 48.232ZM22.825 88.4C17.339 90.359 11.421 95.499 9.07901 100.337C6.38901 105.893 6.33501 113.776 8.95001 118.902C11.864 124.615 20.444 131.759 30 136.429C39.625 141.134 40.872 143.219 36.612 147.479C32.02 152.071 21.444 150.478 11.692 143.726C10.148 142.657 8.75301 141.943 8.59101 142.141C8.43001 142.338 6.33201 145.842 3.93001 149.927C0.649009 155.505 -0.0899913 157.47 0.962009 157.821C1.73201 158.077 3.29301 159.274 4.43101 160.48C7.65101 163.892 14.915 167.738 21.5 169.518C36.988 173.703 53.939 168.919 59.039 158.924C66.565 144.171 58.993 129.833 38.508 120.05C27.399 114.745 25.977 112.737 30.699 109.022C34.156 106.303 40.044 106.449 47.304 109.434L53.107 111.82L56.304 105.332C59.294 99.26 59.387 98.76 57.75 97.561C56.787 96.856 56 95.797 56 95.208C56 93.366 50.752 90.396 44.434 88.664C37.236 86.689 27.933 86.576 22.825 88.4ZM151.092 90.402C149.851 91.723 148.597 94.589 148.304 96.772C147.827 100.324 148.177 101.191 151.636 105.023C157.943 112.013 163.672 113.279 168.649 108.783C173.181 104.688 172.111 98.054 165.906 91.787C162.697 88.545 161.523 88 157.753 88C154.396 88 152.812 88.571 151.092 90.402ZM349.263 91.353C346.513 94.485 346.305 95.198 347.012 99.065C347.821 103.491 352.735 108.908 357.894 111.061C361.017 112.364 366.628 110.564 368.117 107.781C371.26 101.909 371.044 100.456 366.12 94.334C361.771 88.927 361.093 88.478 356.86 88.201C352.734 87.931 352 88.236 349.263 91.353ZM196.502 117.575C194.853 118.435 192.752 119.819 191.833 120.652C190.318 122.022 190.13 121.945 189.83 119.832C189.519 117.632 189.032 117.484 181.25 117.21L173 116.919V141.46V166H175.389C177.05 166 177.735 166.533 177.639 167.75C177.519 169.255 178.583 169.541 185.25 169.792L193 170.084V155.101C193 146.031 193.401 139.87 194.016 139.49C194.575 139.144 194.811 138.503 194.54 138.065C193.84 136.931 197.124 134.225 199.5 133.978C205.157 133.389 204.927 132.757 205.225 149.75C205.495 165.227 205.539 165.506 207.75 165.82C209.196 166.025 210 166.829 210 168.07C210 169.816 210.763 170 218 170H226V154.635C226 140.846 226.203 139.012 227.976 136.758C230.233 133.888 232.655 133.003 235.516 134.004C237.348 134.644 237.538 135.879 238 150.099C238.488 165.136 238.553 165.508 240.75 165.82C242.196 166.025 243 166.829 243 168.07C243 169.816 243.763 170 251 170H259L258.956 152.75C258.908 133.665 258.301 130.746 253.014 124.167C245.25 114.506 232.877 113.319 223.384 121.325L220.267 123.953L218.384 121.835C213.711 116.582 202.568 114.413 196.502 117.575ZM285.145 117.07C283.85 117.589 281.487 118.941 279.895 120.075L277 122.136V119.528V116.919L268.75 117.21L260.5 117.5V141.5V165.5L262.75 165.82C264.196 166.025 265 166.829 265 168.07C265 169.816 265.763 170 273 170H281L281.032 154.25C281.055 142.915 281.428 138.02 282.363 136.789C284.21 134.359 288.105 133.108 290.75 134.095C292.951 134.917 293 135.276 293 150.468V166H295.5C297.333 166 298 166.533 298 168C298 169.822 298.667 170 305.5 170H313V155.968C313 142.126 314.061 136.316 316.911 134.555C318.922 133.312 324.171 133.66 325.08 135.095C325.569 135.868 325.976 143.137 325.985 151.25L326 166H328.406C330.32 166 330.706 166.409 330.29 168C329.798 169.879 330.259 170 337.883 170H346V152.065C346 141.872 345.543 132.929 344.942 131.347C343.169 126.683 336.895 119.857 332.581 117.897C324.688 114.313 317.662 115.577 310.806 121.815L308.113 124.266L305.015 121.169C300.393 116.547 291.19 114.649 285.145 117.07ZM396.145 117.016C394.85 117.564 392.487 118.941 390.895 120.075L388 122.136V119.528V116.919L379.75 117.21L371.5 117.5V141.5V165.5L373.75 165.82C375.214 166.027 376 166.827 376 168.11C376 169.932 376.608 170.059 384.07 169.79L392.141 169.5L392.12 154.71C392.1 139.975 392.11 139.908 394.85 136.842C396.977 134.462 398.496 133.734 401.55 133.632L405.5 133.5L406 149.5C406.489 165.158 406.548 165.507 408.75 165.82C410.214 166.027 411 166.827 411 168.11C411 169.935 411.609 170.059 419.25 169.79L427.5 169.5L427.397 161.303L427.295 153.107L430.007 156.803C432.652 160.41 442 169.609 442 168.606C442 168.329 443.688 168.815 445.75 169.686C449.795 171.395 457.422 171.551 461.481 170.007C464.797 168.746 464.791 170.363 461.467 173.443C456.782 177.785 447.297 177.507 442.375 172.883L439.944 170.598L433.472 173.79C429.912 175.545 427 177.462 427 178.051C427 179.926 437.337 190.127 441.493 192.354C444.925 194.192 447.15 194.5 457 194.5C466.853 194.5 469.073 194.193 472.5 192.353C476.507 190.203 483.061 183.711 484 180.963C484.275 180.158 484.632 166.563 484.793 150.75C485.046 125.956 484.884 122 483.613 122C482.802 122 481.995 120.988 481.82 119.75C481.522 117.652 480.942 117.48 473.25 117.21C465.415 116.934 465 117.026 465 119.043C465 120.211 464.663 120.994 464.25 120.782C455.532 116.314 453.471 115.769 447.208 116.271C439.446 116.894 434.114 120.165 429.373 127.21L426.246 131.857L422.373 126.491C419.894 123.055 416.88 120.31 414 118.862C409.037 116.367 399.906 115.423 396.145 117.016ZM55 117.998C55 120.26 80.295 166 81.546 166C82.272 166 83.158 166.921 83.515 168.047C84.084 169.841 84.86 170.058 89.763 169.797L95.361 169.5L99.76 159.5C102.18 154 104.479 149.167 104.87 148.76C105.26 148.353 107.17 151.728 109.113 156.26C111.332 161.434 113.434 164.857 114.762 165.461C115.925 165.989 117.087 167.226 117.345 168.211C117.721 169.65 118.859 169.998 123.156 169.991L128.5 169.982L134 159.5C137.025 153.735 139.837 149.014 140.25 149.009C140.662 149.004 140.916 148.662 140.813 148.25C140.711 147.838 142.398 143.981 144.563 139.68L148.5 131.86L149 148.68C149.491 165.188 149.542 165.506 151.75 165.82C153.196 166.025 154 166.829 154 168.07C154 169.816 154.763 170 162 170H170V146C170 122.667 169.944 122 168 122C166.533 122 166 121.333 166 119.5V117H148.665H131.33L126.538 127.75C123.903 133.662 121.435 139.086 121.054 139.802C120.632 140.596 118.863 137.671 116.517 132.302C114.402 127.461 112.144 123.05 111.499 122.5C110.854 121.95 109.787 120.488 109.128 119.25C108.107 117.333 107.113 117 102.402 117H96.875L93.82 123.738C92.139 127.443 89.672 132.945 88.338 135.963L85.91 141.451L81.945 132.476C79.765 127.539 77.422 123.04 76.74 122.477C76.058 121.914 75.002 120.564 74.394 119.477C73.439 117.77 72.041 117.461 64.144 117.212C58.124 117.023 55 117.291 55 117.998ZM348 141.46V166H350.389C352.05 166 352.735 166.533 352.639 167.75C352.519 169.255 353.583 169.541 360.25 169.792L368 170.084V146.042C368 125.858 367.77 122 366.57 122C365.783 122 364.995 120.988 364.82 119.75C364.522 117.652 363.942 117.48 356.25 117.21L348 116.919V141.46ZM148.683 123.188C148.364 123.985 148.127 123.748 148.079 122.583C148.036 121.529 148.272 120.939 148.604 121.271C148.936 121.603 148.972 122.466 148.683 123.188ZM463.655 136.128C465.521 137.677 465.341 145.068 463.369 147.883C460.178 152.439 452.298 153.928 448.25 150.74C446.554 149.404 446.672 143.536 448.463 140.072C449.737 137.608 451.941 135.875 454.167 135.586C454.533 135.539 455.205 135.128 455.66 134.674C456.67 133.663 461.811 134.598 463.655 136.128Z" fill="#9DE5F1"/>
<path fill-rule="evenodd" clip-rule="evenodd" d="M4 39V78H26H48V70V62H35H22V34.125C22 18.794 21.719 4.844 21.375 3.125L20.75 0H12.375H4V39ZM67.071 29.102C54.412 32.972 46.257 46.262 49.009 58.539C50.407 64.78 52.74 68.518 58.352 73.51C63.685 78.254 63.859 78.302 76 78.403C83.432 78.464 86.262 78.078 89 76.629C93.347 74.328 99 69.05 99 67.293C99 66.57 96.532 64.768 93.516 63.289L88.033 60.6L84.812 62.981C82.505 64.686 80.206 65.382 76.715 65.431C72.429 65.492 71.485 65.104 68.919 62.234C63.536 56.212 64.015 56 83 56C97.298 56 100 56.234 100 57.471C100 58.281 101.057 61.332 102.348 64.253C105.163 70.617 112.684 77.663 117.66 78.596C123.799 79.748 131.594 78.534 135.758 75.779C139.584 73.247 139.635 73.241 139.568 75.356C139.504 77.369 140.036 77.518 148.25 77.789L157 78.078V56.664C157 44.886 156.719 33.844 156.375 32.125L155.75 29H147.875C140.667 29 140 29.169 140 31C140 33.47 139.909 33.469 135.667 30.966C131.102 28.273 123.194 27.406 117.565 28.982C111.657 30.636 105.26 36.24 102.514 42.167L100.3 46.945L99.141 43.223C97.669 38.498 93.288 33.698 87.97 30.985C83.127 28.514 72.211 27.53 67.071 29.102ZM188.007 29.593C186.086 30.426 183.499 32.062 182.257 33.228C179.966 35.38 179.878 35.307 179.598 31C179.521 29.821 177.734 29.438 171.25 29.21L163 28.919V53.46V78H171.5H180V63.423V48.846L183.022 45.824C185.664 43.183 186.576 42.862 190.272 43.279C192.597 43.542 195.422 44.065 196.549 44.443C198.286 45.024 198.972 44.327 201.049 39.875L203.5 34.622L204.151 40.061C204.509 43.053 204.847 52.813 204.901 61.75L205 78H213.5H222V62.934C222 54.055 222.444 47.04 223.08 45.85C224.739 42.751 230.2 40.825 233.786 42.075C239.156 43.947 240.186 47.646 239.822 63.752L239.5 78.003L248.25 78.002L257 78V61.243C257 52.027 256.561 42.955 256.024 41.083C253.25 31.41 238.591 25.233 228.728 29.58C226.403 30.604 224.14 32.018 223.7 32.721C222.394 34.811 221 34.18 221 31.5C221 29.042 220.867 29 213 29C208.6 29 205 29.427 205 29.949C205 30.471 203.439 30.246 201.532 29.449C197.135 27.612 192.461 27.661 188.007 29.593ZM81.702 42.19C86.134 46.353 84.871 47.346 75.923 46.732C71.48 46.428 67.558 45.892 67.208 45.541C66.249 44.583 68.383 41.666 71.098 40.224C74.18 38.587 78.774 39.439 81.702 42.19ZM136.727 46.527C139.997 49.797 140.215 50.396 139.725 54.744C138.472 65.861 123.647 68.579 119.421 58.466C117.615 54.142 117.636 52.57 119.553 48.53C121.387 44.665 124.086 43.16 129.35 43.068C132.47 43.013 133.868 43.668 136.727 46.527ZM23.5 88.225C10.341 92.905 3.544 107.229 9.068 118.64C11.821 124.327 16.415 128.187 26.302 133.121C39.28 139.598 41.702 143.113 36.533 147.969C32.902 151.38 25.246 151.175 18 147.474C14.975 145.929 11.777 144.053 10.893 143.307C8.993 141.701 9.002 141.692 3.525 150.856C-0.801002 158.094 -1.318 157.125 9.865 162.728C16.432 166.018 18.238 166.462 26.542 166.825C47.106 167.724 58.046 159.307 58.516 142.225C58.627 138.224 58.496 135.171 58.225 135.441C57.955 135.712 56.469 134.187 54.924 132.054C51.518 127.352 46.058 123.562 35.681 118.698C30.522 116.28 28.108 114.634 28.585 113.862C29.009 113.176 28.878 112.958 28.268 113.334C26.632 114.346 24.823 111.405 25.178 108.31C25.44 106.024 26.27 105.234 29.632 104.071C33.438 102.756 34.267 102.818 40.132 104.858C43.634 106.076 47.203 107.312 48.062 107.604C49.214 107.995 50.463 106.343 52.816 101.318L56.008 94.5L53.416 92.393C48.148 88.108 30.673 85.674 23.5 88.225ZM151.783 89.75C146.995 95.24 147.12 101.24 152.111 105.44C155.64 108.409 159.52 108.713 163.027 106.296C166.85 103.662 167.934 101.81 167.968 97.856C168.017 92.276 163.585 88 157.754 88C154.77 88 152.809 88.575 151.783 89.75ZM349.554 91.374C345.433 95.744 345.712 100.491 350.358 105.071C353.074 107.749 354.029 108.1 357.403 107.659C362.284 107.022 365.873 103.555 366.658 98.723C367.184 95.477 366.846 94.646 363.727 91.527C358.854 86.654 354.054 86.602 349.554 91.374ZM196.373 117.918C194.104 118.948 191.873 120.397 191.416 121.136C190.805 122.124 190.43 121.82 190 119.99C189.443 117.618 189.026 117.486 181.208 117.21L173 116.919V141.46V166H181.5H190V150C190 135.333 190.167 133.833 192 132C194.463 129.537 200.206 129.349 202.512 131.655C205.44 134.583 206 137.858 206 152.065V166H214.5H223V150.223C223 131.838 223.626 130 229.882 130C232.515 130 234.299 130.689 235.798 132.285C237.775 134.389 237.968 135.802 238.223 150.035L238.5 165.5L246.75 165.79L255 166.081V146.773C255 127.954 254.938 127.373 252.561 123.875C248.734 118.243 240.115 115.005 232.668 116.403C230.774 116.758 227.18 118.609 224.682 120.517L220.139 123.985L217.241 121.087C212.167 116.013 203.475 114.693 196.373 117.918ZM285.145 117.07C283.85 117.589 281.487 118.941 279.895 120.075L277 122.136V119.528V116.919L268.75 117.21L260.5 117.5V141.5V165.5H269H277.5L277.776 149.55C278.003 136.485 278.348 133.273 279.681 131.8C281.821 129.435 287.149 129.491 290.139 131.909C292.397 133.734 292.522 134.51 293 149.659L293.5 165.5L301.75 165.79L310 166.081V150.975C310 132.847 310.956 130.051 317.168 130.015C324.752 129.972 326 133.001 326 151.45V166H334.576H343.153L342.826 146.669L342.5 127.339L339.698 123.668C335.947 118.753 331.693 116.703 324.609 116.395C318.406 116.125 316.022 117.067 310.75 121.869L308 124.374L305.25 121.74C299.983 116.695 291.184 114.651 285.145 117.07ZM395.5 117.45C393.85 118.273 391.488 119.688 390.25 120.595C388.07 122.193 388 122.163 388 119.622C388 117.011 387.966 117 380 117H372V141.5V166H380.5H389V150.934C389 142.055 389.444 135.04 390.08 133.85C390.675 132.739 392.678 131.197 394.533 130.422C398.412 128.801 401.422 129.576 404.5 132.987C406.283 134.963 406.535 136.873 406.82 150.602L407.141 166H415.664H424.187L423.836 147.25C423.5 129.256 423.386 128.352 421.016 124.839C416.396 117.989 402.491 113.963 395.5 117.45ZM439.5 118.314C433.242 121.345 430.822 123.962 427.43 131.371C425.149 136.354 424.821 138.175 425.246 143.474C426.024 153.167 432.073 162.045 440.218 165.447C445.578 167.686 456.618 167.489 461.365 165.069L465.153 163.138L464.467 167.319C463.639 172.375 461.858 174.562 457.358 176.047C452.753 177.567 446.597 176.373 442.871 173.238L439.812 170.664L433.406 173.822C429.883 175.56 427 177.5 427 178.134C427 178.767 429.138 181.424 431.752 184.037C437.489 189.775 442.326 191.392 453.5 191.307C466.198 191.21 474.827 186.984 479.259 178.692C481.43 174.631 481.5 173.607 481.5 146V117.5L473.25 117.21C465.517 116.937 465 117.047 465 118.96C465 121.482 464.93 121.481 460.525 118.882C454.871 115.546 445.724 115.299 439.5 118.314ZM55.177 118.358C55.355 119.105 61.078 130.13 67.897 142.858L80.293 166H85.953H91.614L97.027 153.847L102.44 141.695L108.191 153.898L113.942 166.102L119.54 165.801L125.139 165.5L136.569 144.227C142.856 132.527 148.099 122.402 148.221 121.727C148.343 121.052 148.68 130.625 148.971 143L149.5 165.5H157.793H166.085L166.064 144.25C166.052 132.563 166.033 121.639 166.021 119.976L166 116.953L148.787 117.226L131.574 117.5L130.262 120C129.54 121.375 126.886 127 124.362 132.5L119.775 142.5L118.408 139.5C117.657 137.85 114.992 132.091 112.486 126.701L107.929 116.902L102.299 117.201L96.669 117.5L91.183 129.799C88.166 136.563 85.372 141.738 84.973 141.299C84.575 140.859 82.56 136.715 80.495 132.089C78.431 127.463 75.856 122.175 74.772 120.339L72.802 117H63.828C56.775 117 54.923 117.291 55.177 118.358ZM348 141.46V166H356.518H365.036L364.768 141.75L364.5 117.5L356.25 117.21L348 116.919V141.46ZM461.923 134.077C466.21 138.364 466.275 144.542 462.082 149.234C454.214 158.04 439.822 148.542 444.407 137.569C446.262 133.128 449.579 131 454.646 131C458.003 131 459.464 131.618 461.923 134.077ZM427.32 163C427.32 166.575 427.502 168.037 427.723 166.25C427.945 164.463 427.945 161.537 427.723 159.75C427.502 157.963 427.32 159.425 427.32 163Z" fill="#81DEEE"/>
<path fill-rule="evenodd" clip-rule="evenodd" d="M3.99999 38.375V76.75L7.12499 77.375C8.84399 77.719 18.744 78 29.125 78H48V70V62H34.5H21V31V0H12.5H3.99999V38.375ZM68.5 28.87C61.095 30.801 54.778 35.799 51.549 42.278C46.167 53.079 49.177 66.226 58.697 73.495C61.028 75.275 62.763 76.904 62.551 77.116C62.34 77.327 63.142 77.598 64.333 77.718C78.574 79.15 80.003 79.141 85.353 77.586C90.882 75.978 99 69.767 99 67.144C99 66.503 96.577 64.79 93.617 63.338L88.233 60.698L85.201 62.857C81.672 65.369 77.069 66.485 73.709 65.642C70.387 64.808 66 60.487 66 58.048C66 56.065 66.536 56 82.817 56H99.635L101.395 61.584C105.761 75.434 120.333 82.665 132.627 77.082C134.896 76.052 137.06 74.711 137.436 74.104C138.604 72.213 140 72.891 140 75.35C140 77.63 140.239 77.697 148.039 77.6L156.078 77.5L156.06 55.75C156.05 43.788 156.032 33.1 156.021 32C156.002 30.168 155.326 30 148 30C140.579 30 140 30.15 140 32.068C140 34.134 139.997 34.134 137.241 32.171C125.408 23.746 106.844 29.771 101.804 43.673L100.654 46.846L98.383 42.173C95.341 35.914 93.35 33.823 87.945 31.211C82.967 28.806 73.237 27.635 68.5 28.87ZM189.03 29.113C187.671 29.655 185.139 31.182 183.403 32.506C180.086 35.036 179 34.87 179 31.833C179 30.208 178.091 30 171 30H163V53.439V76.877L167.25 77.514C169.588 77.865 173.3 78.005 175.5 77.826L179.5 77.5L180 63C180.502 48.44 181.346 44.849 184.554 43.618C187.072 42.652 193.931 42.893 196.041 44.022C197.727 44.924 198.357 44.251 201.426 38.272L204.902 31.5L204.951 54.189L205 76.877L209.25 77.514C211.588 77.865 215.199 78.005 217.275 77.826L221.05 77.5L221.275 62.271C221.495 47.413 221.562 46.98 224.054 44.49C227.884 40.662 232.942 40.186 236.575 43.31L239.5 45.825V61.662V77.5H247.736C252.265 77.5 255.978 77.162 255.986 76.75C255.994 76.338 256 67.967 256 58.148C256 41.222 255.882 40.12 253.72 36.913C248.866 29.71 237.35 26.302 228.985 29.593C226.518 30.563 224.14 31.952 223.7 32.679C222.492 34.675 221 34.263 221 31.932C221 29.977 220.497 29.876 211.75 30.061C206.662 30.169 201.233 29.749 199.685 29.128C196.311 27.776 192.393 27.77 189.03 29.113ZM81.545 41.455C85.582 45.491 84.819 47.002 78.75 46.989C75.862 46.983 71.846 46.705 69.825 46.37C66.428 45.809 66.229 45.591 67.19 43.483C69.409 38.612 77.552 37.462 81.545 41.455ZM133.401 43.394C140.582 46.395 142.413 55.268 137.082 61.234C134.515 64.107 133.555 64.5 129.105 64.5C122.534 64.5 118.987 61.324 118.349 54.868C117.805 49.369 119.52 46.006 124.014 43.752C128.226 41.639 129.118 41.605 133.401 43.394ZM24.994 87.934C14.603 91.095 6.99999 100.378 6.99999 109.903C6.99999 119.31 11.803 125.172 25.108 132.007C36.499 137.858 39 139.927 39 143.5C39 149.461 30.709 152.393 22.015 149.505C19.257 148.589 17 147.35 17 146.753C17 146.156 16.702 145.965 16.338 146.329C15.974 146.693 14.207 145.87 12.41 144.499L9.14499 142.009L4.52299 149.621C1.98099 153.808 0.0359936 157.294 0.199994 157.367C0.364994 157.44 1.39999 158.058 2.49999 158.74C21.633 170.598 45.104 169.465 54.403 156.235C56.959 152.597 57.462 150.799 57.941 143.581C58.249 138.953 58.328 135.339 58.117 135.55C57.906 135.76 56.51 134.243 55.014 132.177C51.64 127.52 49.009 125.684 37.562 120C32.578 117.525 28.607 114.954 28.738 114.286C28.874 113.592 28.349 113.313 27.511 113.634C26.585 113.99 25.619 113.257 24.881 111.639C23.933 109.558 24.02 108.618 25.351 106.588C28.199 102.241 35.283 102.049 44.649 106.064L48.879 107.877L51.769 102.688C56.15 94.825 56.212 94.372 53.19 92.365C51.71 91.382 50.05 90.502 49.5 90.408C48.95 90.315 46.056 89.51 43.068 88.619C37.41 86.932 29.298 86.625 24.994 87.934ZM151.167 90.952C150.007 92.353 148.791 94.705 148.466 96.177C147.151 102.117 154.008 108.816 160.046 107.49C163.629 106.703 168 101.694 168 98.374C168 89.547 156.521 84.486 151.167 90.952ZM349.466 91.467C346.505 94.607 346.275 95.283 347.028 98.625C348.674 105.922 354.931 109.347 361 106.273C370.035 101.696 366.462 88 356.233 88C353.538 88 351.986 88.795 349.466 91.467ZM198.145 117.07C196.85 117.589 194.531 118.91 192.991 120.007C189.495 122.496 189 122.495 189 120C189 118.167 188.333 118 181 118H173V141.439V164.877L177.25 165.514C179.588 165.865 183.3 166.005 185.5 165.826L189.5 165.5L190 149.399C190.575 130.881 190.922 130 197.637 130C201.519 130 202.259 130.377 204.011 133.25C205.739 136.084 205.993 138.308 205.996 150.625L206 164.75L209.125 165.375C210.844 165.719 214.413 166 217.056 166H221.862L222.181 150.102C222.461 136.142 222.732 133.948 224.405 132.102C227.045 129.189 233.209 129.235 235.961 132.189C237.827 134.192 238 135.663 238 149.564V164.75L241.125 165.375C242.844 165.719 246.695 166 249.684 166H255.119L254.809 146.57C254.525 128.692 254.333 126.915 252.408 124.32C245.279 114.709 231.569 113.578 223.558 121.939L220.776 124.843L217.502 121.569C212.845 116.911 203.793 114.808 198.145 117.07ZM284.373 117.918C282.104 118.948 279.94 120.289 279.564 120.896C278.464 122.677 277 122.165 277 120C277 118.167 276.333 118 269 118H261V141.375V164.75L264.125 165.375C265.844 165.719 269.444 166 272.125 166H277V150.934C277 132.253 277.852 130.046 285.076 130.015C287.534 130.005 289.331 130.723 290.826 132.314C292.859 134.479 293 135.603 293 149.689V164.75L296.125 165.375C297.844 165.719 301.669 166 304.625 166H310V150.223C310 131.461 310.541 130 317.484 130C321.015 130 322.253 130.506 323.927 132.635C325.812 135.031 326 136.611 326 150.074V164.877L330.25 165.514C332.587 165.865 336.3 166.005 338.5 165.826L342.5 165.5L342.807 151.5C343.186 134.18 342.489 128.013 339.684 123.887C336.595 119.343 330.67 116.539 323.84 116.389C318.714 116.276 317.692 116.634 313.017 120.172L307.854 124.079L304.455 121.094C298.599 115.953 291.258 114.792 284.373 117.918ZM395.373 117.859C393.104 118.922 390.94 120.289 390.564 120.896C389.464 122.677 388 122.165 388 120C388 118.167 387.333 118 380 118H372V141.375V164.75L375.125 165.375C376.844 165.719 380.412 166 383.055 166H387.859L388.18 150.578C388.484 135.939 388.621 135.027 390.876 132.629C395.467 127.748 402.59 128.372 405.452 133.907C406.632 136.189 407 140.212 407 150.825V164.75L410.125 165.375C411.844 165.719 415.444 166 418.125 166H423V147.448C423 130.039 422.861 128.654 420.75 124.969C416.666 117.841 403.366 114.114 395.373 117.859ZM441.748 117.427C435.991 119.481 431.741 123.23 428.481 129.13C425.985 133.647 425.514 135.612 425.514 141.5C425.514 147.384 425.986 149.354 428.473 153.856C432.071 160.366 436.747 164.389 442.63 166.036C448.01 167.543 457.505 166.825 461.838 164.584C464.974 162.962 465 162.969 465 165.409C465 176.356 451.019 180.973 442.378 172.88L440.256 170.892L433.628 174.161C429.983 175.958 427 177.68 427 177.987C427 179.637 433.758 186.36 437.347 188.279C440.947 190.204 443.032 190.5 453 190.5C465.874 190.5 468.531 189.624 475.28 183.157C481.236 177.451 482 173.332 482 146.943C482 134.462 481.719 122.844 481.375 121.125L480.75 118H472.875C465.478 118 465 118.131 465 120.155C465 122.211 464.912 122.231 463.095 120.586C460.768 118.48 452.797 115.984 448.591 116.044C446.891 116.068 443.812 116.69 441.748 117.427ZM57.125 122.25C65.585 138.854 79.407 163.715 80.755 164.75C81.65 165.438 84.35 166 86.756 166H91.129L95.004 157.614C97.134 153.002 99.635 147.489 100.561 145.364L102.245 141.5L107.583 152.5C110.519 158.55 113.074 163.906 113.261 164.401C113.448 164.897 116.053 165.505 119.05 165.752L124.5 166.202L136.843 143.101C143.632 130.395 149.257 120.001 149.343 120.001C149.43 120.002 149.658 130.015 149.851 142.251C150.044 154.488 150.373 164.68 150.583 164.899C150.793 165.119 154.348 165.515 158.482 165.781L166 166.263V142.132V118H148.684H131.369L125.434 130.532L119.5 143.064L113.997 130.782L108.494 118.5L102.497 118.211L96.5 117.922L91.338 129.682C86.806 140.005 84 144.389 84 141.145C84 140.583 81.683 135.146 78.851 129.062L73.702 118H64.331H54.959L57.125 122.25ZM348 141.439V164.877L352.25 165.514C354.587 165.865 358.3 166.005 360.5 165.826L364.5 165.5L364.799 146C364.963 135.275 364.823 124.588 364.488 122.25L363.877 118H355.939H348V141.439ZM458.401 131.394C465.582 134.395 467.413 143.268 462.082 149.234C459.5 152.124 458.569 152.5 453.995 152.5C449.576 152.5 448.478 152.095 446.421 149.703C443.228 145.991 442.495 142.628 443.876 138.02C444.997 134.277 447.702 131.705 451.542 130.729C454.726 129.921 454.919 129.939 458.401 131.394ZM427.32 163C427.32 166.575 427.502 168.037 427.723 166.25C427.945 164.463 427.945 161.537 427.723 159.75C427.502 157.963 427.32 159.425 427.32 163Z" fill="#55D3E8"/>
<path fill-rule="evenodd" clip-rule="evenodd" d="M4.00001 39V77H26.088H48.177L47.814 69.75L47.451 62.5L34.226 62.221L21 61.942V31.471V1H12.5H4.00001V39ZM70.5 28.631C61.292 30.93 54.137 36.35 50.871 43.5C48.603 48.465 48.448 57.739 50.549 62.782C52.507 67.483 58.318 73.543 63.5 76.29C69.074 79.244 81.603 79.281 88 76.363C92.012 74.532 99 68.596 99 67.018C99 66.687 96.532 65.206 93.516 63.727L88.033 61.038L84.266 63.611C81.16 65.732 79.662 66.105 75.717 65.735C70.22 65.22 66 61.993 66 58.302V55.953L83.07 56.226L100.14 56.5L101.888 61.668C102.85 64.51 104.87 68.451 106.376 70.427C113.357 79.579 128.459 81.534 136.955 74.385L140 71.822V74.411C140 76.981 140.06 77 148 77H156V53.5V30H148C140.712 30 140 30.175 140 31.966C140 33.895 139.931 33.892 136.425 31.823C128.445 27.115 117.616 27.598 110.168 32.993C107.641 34.824 105.134 38.045 103.157 42.002C100.194 47.932 100.055 48.056 99.434 45.331C99.08 43.774 97.427 40.444 95.762 37.93C93.361 34.305 91.573 32.906 87.117 31.164C81.286 28.884 73.958 27.768 70.5 28.631ZM190.039 29.174C188.135 29.72 184.872 31.517 182.789 33.167L179 36.168V33.084V30H171H163V53.5V77H170.924H178.849L179.174 63.069C179.462 50.772 179.746 48.809 181.602 46.328C184.558 42.374 188.987 41.299 194.077 43.298L198.132 44.891L201.316 38.196L204.5 31.5L204.769 54.25L205.038 77H213.019H221V62.4V47.8L224.4 44.4C228.849 39.951 232.967 39.813 237.126 43.972L240.098 46.945L239.799 62.222L239.5 77.5L247.81 77.175L256.12 76.85L255.81 58.175C255.519 40.656 255.36 39.304 253.243 36.336C248.414 29.566 233.995 26.152 227.687 30.285C226.209 31.254 224.986 31.698 224.97 31.273C224.953 30.848 224.481 31.288 223.92 32.25C222.537 34.625 221 34.458 221 31.932C221 29.982 220.478 29.873 211.75 30C206.662 30.075 200.7 29.666 198.5 29.092C193.905 27.892 194.525 27.886 190.039 29.174ZM81.365 41.073C82.814 42.212 84 44.012 84 45.073C84 46.833 83.22 47 75 47C64.968 47 63.853 46.056 68.455 41.455C71.619 38.29 77.603 38.113 81.365 41.073ZM137.25 45.954C139.403 48.363 140 50.028 140 53.616C140 57.496 139.478 58.722 136.6 61.6C133.813 64.387 132.443 65 129 65C125.557 65 124.187 64.387 121.4 61.6C118.549 58.749 118 57.48 118 53.735C118 48.914 120.572 44.563 124.388 42.929C128.35 41.232 134.276 42.626 137.25 45.954ZM23.64 88.632C16.299 90.887 9.58201 98.041 7.94701 105.345C6.94101 109.839 6.93401 111.836 7.91101 115.096C9.77101 121.306 16.144 127.521 24.917 131.681C36.195 137.029 39 139.388 39 143.528C39 147.623 36.161 149.9 30.03 150.723C25.781 151.293 17 148.689 17 146.858C17 146.321 16.603 146.127 16.118 146.427C15.632 146.727 14.099 146.079 12.71 144.986C11.321 143.894 9.80601 143.007 9.34201 143.015C8.87901 143.024 6.61001 146.28 4.30001 150.252L0.101013 157.473L7.80001 161.24C21.662 168.023 34.552 168.563 46.005 162.84C53.652 159.018 57.004 153.823 57.74 144.646C58.598 133.964 53.554 127.745 38.056 120.378C27.315 115.273 24 112.683 24 109.398C24 103.171 34.388 101.105 43.759 105.468L49.017 107.916L52.528 100.945L56.038 93.974L53.519 92.827C52.134 92.195 51 91.301 51 90.839C51 90.378 50.662 90.086 50.25 90.192C49.838 90.298 46.261 89.623 42.303 88.692C33.684 86.666 30.079 86.654 23.64 88.632ZM151.349 90.973C145.926 97.54 149.682 107 157.712 107C162.217 107 164.636 105.604 166.553 101.897C171.33 92.659 157.915 83.021 151.349 90.973ZM352.5 89.137C351.4 89.729 349.546 91.338 348.379 92.712C346.628 94.774 346.401 95.845 347.077 98.855C348.868 106.831 357.504 109.65 363.077 104.077C367.814 99.34 366.852 92.526 361.02 89.51C357.608 87.746 355.275 87.644 352.5 89.137ZM199.037 117.152C197.132 117.711 194.362 119.03 192.882 120.084C189.5 122.492 189 122.481 189 120C189 118.167 188.333 118 181 118H173V141.5V165H180.93H188.859L189.18 149.411L189.5 133.822L192.306 131.411C196.06 128.185 199.502 128.349 203.077 131.923L206 134.846V149.923V165H214H222V150.45C222 139.549 222.372 135.182 223.483 133.034C225.206 129.701 229.333 128.416 233.375 129.952C237.828 131.646 239 136.127 239 151.468V165H247H255L254.994 148.25C254.991 139.037 254.53 129.85 253.97 127.832C252.568 122.786 247.325 118.45 240.977 117.089C234.226 115.641 229.113 117 224.028 121.594C220.306 124.956 220.121 125.011 218.81 123.139C215.346 118.194 205.574 115.235 199.037 117.152ZM285.684 117.426C283.585 118.187 281.074 119.528 280.105 120.405C277.771 122.517 277 122.416 277 120C277 118.167 276.333 118 269 118H261V141.5V165H269H277V149.455C277 134.088 277.03 133.88 279.573 131.336C281.718 129.192 282.76 128.86 285.823 129.351C292.378 130.4 293 132.157 293 149.611V165H301.5H310V149.073V133.145L312.635 131.073C316.286 128.201 319.626 128.473 323.077 131.923L326 134.846V149.923V165H334H342V146.734C342 125.656 341.288 123.173 334.086 119.139C329.804 116.742 319.613 115.547 317.5 117.194C316.95 117.623 314.458 119.479 311.962 121.319L307.424 124.663L305.588 122.229C302.056 117.547 292.024 115.126 285.684 117.426ZM396.684 117.437C394.585 118.192 392.074 119.528 391.105 120.405C388.771 122.517 388 122.416 388 120C388 118.167 387.333 118 380 118H372V141.5V165H380H388V150.4V135.8L391.4 132.4C395.829 127.971 399.969 127.815 404.077 131.923L407 134.846V149.923V165H415H423V147.36C423 131.517 422.789 129.296 420.928 125.571C419.358 122.427 417.724 120.914 414.178 119.323C407.772 116.448 401.356 115.756 396.684 117.437ZM442.904 117.336C432.269 120.29 426 129.216 426 141.403C426 151.677 429.974 159.142 437.922 163.8C444.099 167.42 455.537 167.651 461.266 164.271L465 162.067V166.018C465 176.095 450.588 180.908 442.595 173.5L439.946 171.045L433.541 174.204C427.139 177.361 427.137 177.364 428.532 180.062C431.953 186.678 441.278 191 452.132 191C465.356 191 474.421 186.58 478.75 178.024C480.923 173.729 481 172.621 481 145.788V118H473C465.764 118 465 118.184 465 119.93C465 121.77 464.803 121.75 460.75 119.509C455.332 116.513 448.751 115.711 442.904 117.336ZM58.272 124.25C60.166 127.688 65.869 138.262 70.945 147.75L80.173 165H85.84H91.507L96.411 153.75C99.108 147.563 101.634 142.133 102.024 141.683C102.414 141.234 105.156 146.294 108.117 152.927L113.5 164.988L119.165 164.994L124.83 165L136.415 143.381C142.787 131.491 148 121.366 148 120.881C148 120.396 148.45 120 149 120C149.637 120 150 128.167 150 142.5V165H158H166V141.5V118H148.652H131.304L125.922 130.083C122.961 136.729 120.26 142.339 119.918 142.551C119.576 142.762 116.848 137.437 113.856 130.717L108.415 118.5H102.5H96.585L91.144 130.717C88.152 137.437 85.398 142.746 85.025 142.515C84.652 142.285 81.932 136.675 78.98 130.048L73.614 118H64.221H54.828L58.272 124.25ZM348 141.5V165H356H364V141.5V118H356H348V141.5ZM462.099 133.595C465.856 137.195 466.691 141.742 464.458 146.447C462.44 150.699 458.575 153 453.45 153C448.355 153 443 147.704 443 142.665C443 137.437 444.554 134.249 448.225 131.948C452.599 129.206 458.214 129.873 462.099 133.595ZM427.32 163C427.32 166.575 427.502 168.037 427.723 166.25C427.945 164.463 427.945 161.537 427.723 159.75C427.502 157.963 427.32 159.425 427.32 163Z" fill="#2FC9E3"/>
<path fill-rule="evenodd" clip-rule="evenodd" d="M4.00001 39V77H25.5H47L47.002 69.75L47.005 62.5L38.278 62.83C33.478 63.011 27.627 62.871 25.275 62.519L21 61.877V31.439V1H12.5H4.00001V39ZM65.137 30.369C59.848 32.283 53.979 37.849 51.392 43.406C47.207 52.394 48.605 61.997 55.187 69.475C60.812 75.865 65.926 78.002 75.566 77.99C84.931 77.979 91.894 75.291 96.384 69.955L99.187 66.625L93.484 63.741L87.781 60.857L85.398 63.096C83.72 64.673 81.394 65.469 77.53 65.789C72.307 66.222 71.871 66.071 68.444 62.644C66.367 60.567 64.989 58.295 65.186 57.272C65.497 55.657 67.066 55.5 82.903 55.5H100.279L101.47 60.19C104.157 70.775 111.462 77.18 121.58 77.824C129.257 78.313 131.528 77.81 136.323 74.555L140 72.06V74.53C140 76.951 140.159 77 148 77H156V53.5V30H148C140.667 30 140 30.167 140 32C140 34.53 139.603 34.506 135.876 31.75C133.265 29.82 131.588 29.5 124.081 29.5C116.167 29.5 114.954 29.762 111.415 32.234C106.714 35.517 103.268 40.376 101.575 46.113L100.325 50.346L99.186 45.923C98.106 41.731 92.936 32.792 91.641 32.878C91.308 32.9 89.116 32.047 86.768 30.981C81.821 28.736 70.533 28.416 65.137 30.369ZM185.5 31.532C183.3 33.023 181.35 34.639 181.167 35.122C180.398 37.146 179 35.776 179 33V30H171H163V53.5V77H170.926H178.852L179.176 62.415L179.5 47.831L182.893 44.802C185.815 42.193 186.858 41.842 190.393 42.276C192.652 42.553 195.284 43.101 196.243 43.494C197.654 44.072 198.556 43.004 200.976 37.887C202.94 33.735 203.627 31.227 202.98 30.58C202.438 30.038 199.183 29.42 195.747 29.207C190.249 28.866 189.02 29.145 185.5 31.532ZM227.75 30.572C226.238 31.393 225 31.775 225 31.421C225 31.068 224.115 31.841 223.033 33.139L221.067 35.5L221.033 32.75L221 30H213H205V53.5V77H213H221V62.106V47.212L223.901 44.106C227.843 39.886 233.895 39.705 237.594 43.696C240.066 46.363 240.089 46.554 239.796 61.946L239.5 77.5L247.75 77.177L256 76.853V59.742C256 44.293 255.792 42.201 253.856 38.203C252.145 34.668 250.683 33.295 246.606 31.397C240.655 28.626 232.032 28.249 227.75 30.572ZM80.64 40.173C82.415 41.042 85 44.82 85 46.547C85 46.796 80.725 47 75.5 47C66.969 47 66 46.814 66 45.174C66 43.023 69.654 39.4 72.5 38.727C74.804 38.183 77.582 38.676 80.64 40.173ZM136.638 45.307C139.59 48.012 140.266 49.356 140.353 52.693C140.555 60.386 135.982 65 128.155 65C120.124 65 114.941 56.141 118.538 48.56C121.988 41.29 130.571 39.747 136.638 45.307ZM26.5 87.904C8.72601 92.454 1.57601 110.777 12.75 123.145C15.034 125.673 19.771 128.862 25.446 131.694C36.607 137.262 39 139.35 39 143.519C39 147.712 36.188 150.112 30.529 150.75C25.666 151.298 17 148.736 17 146.751C17 146.154 16.706 145.961 16.347 146.32C15.987 146.679 14.208 146.056 12.393 144.934L9.09201 142.894L6.73701 146.697C0.949007 156.044 -0.151993 158.052 0.647007 157.812C1.11601 157.671 3.52501 158.739 6.00001 160.186C13.353 164.485 19.309 166 28.857 166C40.046 166 46.028 164.025 51.543 158.51C54.617 155.436 56.051 152.957 56.969 149.13C60.032 136.363 55.013 128.758 38.154 120.624C26.77 115.131 24 112.946 24 109.461C24 102.63 34.064 100.596 44.135 105.391L48.769 107.598L51.953 101.14L55.138 94.683L52.676 92.401C51.323 91.145 50.012 90.322 49.763 90.57C49.515 90.818 47.544 90.398 45.383 89.635C40.292 87.839 30.324 86.925 26.5 87.904ZM151.168 91.46C147.92 96.199 148.272 101.21 152.077 104.411C153.81 105.869 156.397 107 158 107C159.603 107 162.19 105.869 163.923 104.411C166.379 102.345 167 101.044 167 97.967C167 92.244 163.596 88.723 157.828 88.483C153.813 88.316 153.106 88.632 151.168 91.46ZM352.345 89.451C350.61 90.206 348.893 91.763 348.528 92.912C348.164 94.06 347.493 95 347.039 95C345.336 95 348.357 103.136 350.764 105.029C356.074 109.206 364.315 106.168 365.551 99.578C366.399 95.06 363.943 90.524 359.881 89.108C356.027 87.765 356.243 87.755 352.345 89.451ZM317.423 117.182C316.915 117.582 314.556 119.585 312.18 121.634L307.861 125.358L305.68 122.765C302.018 118.408 297.463 116.738 290.464 117.183C285.591 117.494 283.455 118.179 280.62 120.341L277 123.102V120.551C277 118.029 276.909 118 269 118H261V141.5V165H269H277V149.174C277 133.925 277.084 133.269 279.314 131.174C281.821 128.819 285.939 128.362 289.15 130.08C292.885 132.079 294 136.996 294 151.468V165H301.5H309V150.45C309 131.823 310.201 129 318.127 129C319.941 129 322.044 129.953 323.545 131.455C325.941 133.85 326 134.283 326 149.455V165H334.061H342.121L341.811 146.07C341.472 125.43 341.222 124.495 334.762 119.671C332.031 117.633 319.19 115.789 317.423 117.182ZM193.696 119.978L189 122.956V120.478C189 118.047 188.848 118 181 118H173V141.5V165H181H189V150.45C189 132.22 190.276 129 197.5 129C204.724 129 206 132.22 206 150.45V165H214H222V149.455C222 134.283 222.059 133.85 224.455 131.455C227.632 128.277 232.027 128.26 235.694 131.411L238.5 133.822L238.82 149.411L239.141 165L246.82 165.002L254.5 165.003L254 145.702C253.437 123.962 253.025 122.584 246.025 119.013C241.796 116.855 233.885 116.333 229.676 117.933C228.326 118.446 225.664 120.234 223.76 121.906L220.298 124.946L217.899 122.344C212.178 116.139 201.409 115.086 193.696 119.978ZM394.502 118.575C392.853 119.435 390.716 120.852 389.752 121.724C388.124 123.197 388 123.121 388 120.655C388 118.003 387.991 118 380 118H372V141.5V165H380H388V149.923V134.846L390.923 131.923C395.114 127.732 400.81 127.797 404.411 132.077C406.943 135.086 407 135.481 407 150.077V165H415.079H423.159L422.829 146.703C422.537 130.487 422.276 128.069 420.528 125.453C419.443 123.829 418.655 122.162 418.778 121.75C418.9 121.338 418.662 121.072 418.25 121.16C417.837 121.248 415.475 120.358 413 119.182C407.567 116.601 398.839 116.314 394.502 118.575ZM439.5 118.659C421.67 128.042 421.498 154.981 439.21 164.092C444.329 166.724 456.139 166.733 461.289 164.108L465 162.216L464.968 166.358C464.916 173.092 460.416 177 452.712 177C447.77 177 445.054 176.05 441.5 173.077C439.609 171.496 439.157 171.571 433.188 174.467L426.876 177.528L429.817 181.589C434.339 187.831 441.105 190.422 453 190.465C461.442 190.496 463.141 190.185 468.258 187.672C474.326 184.693 477.974 180.741 479.862 175.101C480.6 172.896 481 162.266 481 144.851V118H473C465.705 118 465 118.174 465 119.972C465 121.863 464.809 121.842 460.351 119.472C454.75 116.494 444.382 116.09 439.5 118.659ZM67.767 141.508L80.369 165.089L85.847 164.794L91.325 164.5L96.413 153.134C99.211 146.882 101.901 141.707 102.392 141.634C102.882 141.56 105.582 146.774 108.392 153.221L113.5 164.942L119.002 164.971L124.505 165L137.002 141.75L149.5 118.5L149.768 141.75L150.037 165H158.018H166V141.5V118H148.75L131.5 118.001L126 130.486C122.975 137.353 120.113 142.849 119.639 142.699C119.166 142.549 116.292 136.91 113.253 130.167L107.728 117.908L102.265 118.204L96.802 118.5L91.286 130.75C88.251 137.488 85.483 142.996 85.134 142.992C84.786 142.988 82.012 137.475 78.97 130.742L73.44 118.5L64.303 118.214L55.165 117.927L67.767 141.508ZM348 141.5V165H356H364V141.5V118H356H348V141.5ZM460.033 131.517C467.382 135.317 467.804 146.522 460.783 151.439C457.867 153.482 451.537 153.43 447.99 151.335C444.501 149.274 443 146.121 443 140.853C443 137.577 443.652 136.148 446.4 133.4C450.26 129.54 454.956 128.891 460.033 131.517ZM427.32 163C427.32 166.575 427.502 168.037 427.723 166.25C427.945 164.463 427.945 161.537 427.723 159.75C427.502 157.963 427.32 159.425 427.32 163Z" fill="#0CC0DF"/>
<path fill-rule="evenodd" clip-rule="evenodd" d="M427.32 163C427.32 166.575 427.502 168.037 427.723 166.25C427.945 164.463 427.945 161.537 427.723 159.75C427.502 157.963 427.32 159.425 427.32 163Z" fill="white"/>
</svg>
